<svg id="my-svg" width="100%" xmlns="http://www.w3.org/2000/svg" xmlns:xlink="http://www.w3.org/1999/xlink" class="flowchart" style="max-width: 1342.65px; background-color: white;" viewBox="0 0 1342.6541748046875 758" role="graphics-document document" aria-roledescription="flowchart-v2"><style>#my-svg{font-family:"trebuchet ms",verdana,arial,sans-serif;font-size:16px;fill:#333;}@keyframes edge-animation-frame{from{stroke-dashoffset:0;}}@keyframes dash{to{stroke-dashoffset:0;}}#my-svg .edge-animation-slow{stroke-dasharray:9,5!important;stroke-dashoffset:900;animation:dash 50s linear infinite;stroke-linecap:round;}#my-svg .edge-animation-fast{stroke-dasharray:9,5!important;stroke-dashoffset:900;animation:dash 20s linear infinite;stroke-linecap:round;}#my-svg .error-icon{fill:#552222;}#my-svg .error-text{fill:#552222;stroke:#552222;}#my-svg .edge-thickness-normal{stroke-width:1px;}#my-svg .edge-thickness-thick{stroke-width:3.5px;}#my-svg .edge-pattern-solid{stroke-dasharray:0;}#my-svg .edge-thickness-invisible{stroke-width:0;fill:none;}#my-svg .edge-pattern-dashed{stroke-dasharray:3;}#my-svg .edge-pattern-dotted{stroke-dasharray:2;}#my-svg .marker{fill:#333333;stroke:#333333;}#my-svg .marker.cross{stroke:#333333;}#my-svg svg{font-family:"trebuchet ms",verdana,arial,sans-serif;font-size:16px;}#my-svg p{margin:0;}#my-svg .label{font-family:"trebuchet ms",verdana,arial,sans-serif;color:#333;}#my-svg .cluster-label text{fill:#333;}#my-svg .cluster-label span{color:#333;}#my-svg .cluster-label span p{background-color:transparent;}#my-svg .label text,#my-svg span{fill:#333;color:#333;}#my-svg .node rect,#my-svg .node circle,#my-svg .node ellipse,#my-svg .node polygon,#my-svg .node path{fill:#ECECFF;stroke:#9370DB;stroke-width:1px;}#my-svg .rough-node .label text,#my-svg .node .label text,#my-svg .image-shape .label,#my-svg .icon-shape .label{text-anchor:middle;}#my-svg .node .katex path{fill:#000;stroke:#000;stroke-width:1px;}#my-svg .rough-node .label,#my-svg .node .label,#my-svg .image-shape .label,#my-svg .icon-shape .label{text-align:center;}#my-svg .node.clickable{cursor:pointer;}#my-svg .root .anchor path{fill:#333333!important;stroke-width:0;stroke:#333333;}#my-svg .arrowheadPath{fill:#333333;}#my-svg .edgePath .path{stroke:#333333;stroke-width:1px;}#my-svg .flowchart-link{stroke:#333333;fill:none;}#my-svg .edgeLabel{background-color:rgba(232,232,232, 0.8);text-align:center;}#my-svg .edgeLabel p{background-color:rgba(232,232,232, 0.8);}#my-svg .edgeLabel rect{opacity:0.5;background-color:rgba(232,232,232, 0.8);fill:rgba(232,232,232, 0.8);}#my-svg .labelBkg{background-color:rgba(232, 232, 232, 0.5);}#my-svg .cluster rect{fill:#ffffde;stroke:#aaaa33;stroke-width:1px;}#my-svg .cluster text{fill:#333;}#my-svg .cluster span{color:#333;}#my-svg div.mermaidTooltip{position:absolute;text-align:center;max-width:200px;padding:2px;font-family:"trebuchet ms",verdana,arial,sans-serif;font-size:12px;background:hsl(80, 100%, 96.2745098039%);border:1px solid #aaaa33;border-radius:2px;pointer-events:none;z-index:100;}#my-svg .flowchartTitleText{text-anchor:middle;font-size:18px;fill:#333;}#my-svg rect.text{fill:none;stroke-width:0;}#my-svg .icon-shape,#my-svg .image-shape{background-color:rgba(232,232,232, 0.8);text-align:center;}#my-svg .icon-shape p,#my-svg .image-shape p{background-color:rgba(232,232,232, 0.8);padding:2px;}#my-svg .icon-shape .label rect,#my-svg .image-shape .label rect{opacity:0.5;background-color:rgba(232,232,232, 0.8);fill:rgba(232,232,232, 0.8);}#my-svg .label-icon{display:inline-block;height:1em;overflow:visible;vertical-align:-0.125em;}#my-svg .node .label-icon path{fill:currentColor;stroke:revert;stroke-width:revert;}#my-svg .node .neo-node{stroke:#9370DB;}#my-svg [data-look="neo"].node rect,#my-svg [data-look="neo"].cluster rect,#my-svg [data-look="neo"].node polygon{stroke:#9370DB;filter:drop-shadow(1px 2px 2px rgba(185, 185, 185, 1));}#my-svg [data-look="neo"].swimlane.cluster rect{filter:none;}#my-svg [data-look="neo"].node path{stroke:#9370DB;stroke-width:1px;}#my-svg [data-look="neo"].node .outer-path{filter:drop-shadow(1px 2px 2px rgba(185, 185, 185, 1));}#my-svg [data-look="neo"].node .neo-line path{stroke:#9370DB;filter:none;}#my-svg [data-look="neo"].node circle{stroke:#9370DB;filter:drop-shadow(1px 2px 2px rgba(185, 185, 185, 1));}#my-svg [data-look="neo"].node circle .state-start{fill:#000000;}#my-svg [data-look="neo"].icon-shape .icon{fill:#9370DB;filter:drop-shadow(1px 2px 2px rgba(185, 185, 185, 1));}#my-svg [data-look="neo"].icon-shape .icon-neo path{stroke:#9370DB;filter:drop-shadow(1px 2px 2px rgba(185, 185, 185, 1));}#my-svg :root{--mermaid-font-family:"trebuchet ms",verdana,arial,sans-serif;}</style><g><marker id="my-svg_flowchart-v2-pointEnd" class="marker flowchart-v2" viewBox="0 0 10 10" refX="5" refY="5" markerUnits="userSpaceOnUse" markerWidth="8" markerHeight="8" orient="auto"><path d="M 0 0 L 10 5 L 0 10 z" class="arrowMarkerPath" style="stroke-width: 1; stroke-dasharray: 1, 0;"/></marker><marker id="my-svg_flowchart-v2-pointStart" class="marker flowchart-v2" viewBox="0 0 10 10" refX="4.5" refY="5" markerUnits="userSpaceOnUse" markerWidth="8" markerHeight="8" orient="auto"><path d="M 0 5 L 10 10 L 10 0 z" class="arrowMarkerPath" style="stroke-width: 1; stroke-dasharray: 1, 0;"/></marker><marker id="my-svg_flowchart-v2-pointEnd-margin" class="marker flowchart-v2" viewBox="0 0 11.5 14" refX="11.5" refY="7" markerUnits="userSpaceOnUse" markerWidth="10.5" markerHeight="14" orient="auto"><path d="M 0 0 L 11.5 7 L 0 14 z" class="arrowMarkerPath" style="stroke-width: 0; stroke-dasharray: 1, 0;"/></marker><marker id="my-svg_flowchart-v2-pointStart-margin" class="marker flowchart-v2" viewBox="0 0 11.5 14" refX="1" refY="7" markerUnits="userSpaceOnUse" markerWidth="11.5" markerHeight="14" orient="auto"><polygon points="0,7 11.5,14 11.5,0" class="arrowMarkerPath" style="stroke-width: 0; stroke-dasharray: 1, 0;"/></marker><marker id="my-svg_flowchart-v2-circleEnd" class="marker flowchart-v2" viewBox="0 0 10 10" refX="11" refY="5" markerUnits="userSpaceOnUse" markerWidth="11" markerHeight="11" orient="auto"><circle cx="5" cy="5" r="5" class="arrowMarkerPath" style="stroke-width: 1; stroke-dasharray: 1, 0;"/></marker><marker id="my-svg_flowchart-v2-circleStart" class="marker flowchart-v2" viewBox="0 0 10 10" refX="-1" refY="5" markerUnits="userSpaceOnUse" markerWidth="11" markerHeight="11" orient="auto"><circle cx="5" cy="5" r="5" class="arrowMarkerPath" style="stroke-width: 1; stroke-dasharray: 1, 0;"/></marker><marker id="my-svg_flowchart-v2-circleEnd-margin" class="marker flowchart-v2" viewBox="0 0 10 10" refY="5" refX="12.25" markerUnits="userSpaceOnUse" markerWidth="14" markerHeight="14" orient="auto"><circle cx="5" cy="5" r="5" class="arrowMarkerPath" style="stroke-width: 0; stroke-dasharray: 1, 0;"/></marker><marker id="my-svg_flowchart-v2-circleStart-margin" class="marker flowchart-v2" viewBox="0 0 10 10" refX="-2" refY="5" markerUnits="userSpaceOnUse" markerWidth="14" markerHeight="14" orient="auto"><circle cx="5" cy="5" r="5" class="arrowMarkerPath" style="stroke-width: 0; stroke-dasharray: 1, 0;"/></marker><marker id="my-svg_flowchart-v2-crossEnd" class="marker cross flowchart-v2" viewBox="0 0 11 11" refX="12" refY="5.2" markerUnits="userSpaceOnUse" markerWidth="11" markerHeight="11" orient="auto"><path d="M 1,1 l 9,9 M 10,1 l -9,9" class="arrowMarkerPath" style="stroke-width: 2; stroke-dasharray: 1, 0;"/></marker><marker id="my-svg_flowchart-v2-crossStart" class="marker cross flowchart-v2" viewBox="0 0 11 11" refX="-1" refY="5.2" markerUnits="userSpaceOnUse" markerWidth="11" markerHeight="11" orient="auto"><path d="M 1,1 l 9,9 M 10,1 l -9,9" class="arrowMarkerPath" style="stroke-width: 2; stroke-dasharray: 1, 0;"/></marker><marker id="my-svg_flowchart-v2-crossEnd-margin" class="marker cross flowchart-v2" viewBox="0 0 15 15" refX="17.7" refY="7.5" markerUnits="userSpaceOnUse" markerWidth="12" markerHeight="12" orient="auto"><path d="M 1,1 L 14,14 M 1,14 L 14,1" class="arrowMarkerPath" style="stroke-width: 2.5;"/></marker><marker id="my-svg_flowchart-v2-crossStart-margin" class="marker cross flowchart-v2" viewBox="0 0 15 15" refX="-3.5" refY="7.5" markerUnits="userSpaceOnUse" markerWidth="12" markerHeight="12" orient="auto"><path d="M 1,1 L 14,14 M 1,14 L 14,1" class="arrowMarkerPath" style="stroke-width: 2.5; stroke-dasharray: 1, 0;"/></marker><g class="root"><g class="clusters"/><g class="edgePaths"><path d="M448.453,55.587L484.646,64.823C520.84,74.058,593.227,92.529,632.087,109.303C670.947,126.076,676.28,141.153,678.947,148.691L681.614,156.229" id="my-svg-L_Z_A_0" class="edge-thickness-normal edge-pattern-solid edge-thickness-normal edge-pattern-solid flowchart-link" style=";" data-edge="true" data-et="edge" data-id="L_Z_A_0" data-points="W3sieCI6NDQ4LjQ1MzEyNSwieSI6NTUuNTg3MDkxOTUxMTU4NzN9LHsieCI6NjY1LjYxMzI4MTI1LCJ5IjoxMTF9LHsieCI6NjgyLjk0ODEzOTM5MTQ0NzQsInkiOjE2MH1d" data-look="classic" marker-end="url(#my-svg_flowchart-v2-pointEnd)"/><path d="M448.453,45.275L534.461,56.23C620.469,67.184,792.484,89.092,878.492,112.713C964.5,136.333,964.5,161.667,964.5,185C964.5,208.333,964.5,229.667,964.5,251C964.5,272.333,964.5,293.667,964.5,315C964.5,336.333,964.5,357.667,964.5,379C964.5,400.333,964.5,421.667,964.5,443C964.5,464.333,964.5,485.667,964.5,509C964.5,532.333,964.5,557.667,964.5,583C964.5,608.333,964.5,633.667,990.276,653.681C1016.051,673.696,1067.602,688.392,1093.378,695.74L1119.153,703.088" id="my-svg-L_Z_D_0" class="edge-thickness-normal edge-pattern-solid edge-thickness-normal edge-pattern-solid flowchart-link" style=";" data-edge="true" data-et="edge" data-id="L_Z_D_0" data-points="W3sieCI6NDQ4LjQ1MzEyNSwieSI6NDUuMjc1NDg3MzU5NDIxODQ1fSx7IngiOjk2NC41LCJ5IjoxMTF9LHsieCI6OTY0LjUsInkiOjE4N30seyJ4Ijo5NjQuNSwieSI6MjUxfSx7IngiOjk2NC41LCJ5IjozMTV9LHsieCI6OTY0LjUsInkiOjM3OX0seyJ4Ijo5NjQuNSwieSI6NDQzfSx7IngiOjk2NC41LCJ5Ijo1MDd9LHsieCI6OTY0LjUsInkiOjU4M30seyJ4Ijo5NjQuNSwieSI6NjU5fSx7IngiOjExMjMsInkiOjcwNC4xODQ4NTUyMzM4NTN9XQ==" data-look="classic" marker-end="url(#my-svg_flowchart-v2-pointEnd)"/><path d="M287.094,53.261L244.578,62.884C202.063,72.508,117.031,91.754,74.516,114.044C32,136.333,32,161.667,32,185C32,208.333,32,229.667,54.825,247.398C77.651,265.13,123.302,279.259,146.127,286.324L168.952,293.389" id="my-svg-L_Z_E_0" class="edge-thickness-normal edge-pattern-solid edge-thickness-normal edge-pattern-solid flowchart-link" style=";" data-edge="true" data-et="edge" data-id="L_Z_E_0" data-points="W3sieCI6Mjg3LjA5Mzc1LCJ5Ijo1My4yNjEyOTAzOTc2MzYwNn0seyJ4IjozMiwieSI6MTExfSx7IngiOjMyLCJ5IjoxODd9LHsieCI6MzIsInkiOjI1MX0seyJ4IjoxNzIuNzczNDM3NSwieSI6Mjk0LjU3MTg0NDE4MzMyMjY0fV0=" data-look="classic" marker-end="url(#my-svg_flowchart-v2-pointEnd)"/><path d="M395.92,62L404.433,70.167C412.946,78.333,429.973,94.667,438.487,115.5C447,136.333,447,161.667,447,185C447,208.333,447,229.667,451.819,245.992C456.638,262.318,466.276,273.636,471.095,279.295L475.914,284.955" id="my-svg-L_Z_F_0" class="edge-thickness-normal edge-pattern-solid edge-thickness-normal edge-pattern-solid flowchart-link" style=";" data-edge="true" data-et="edge" data-id="L_Z_F_0" data-points="W3sieCI6Mzk1LjkxOTcxNjI4Mjg5NDc0LCJ5Ijo2Mn0seyJ4Ijo0NDcsInkiOjExMX0seyJ4Ijo0NDcsInkiOjE4N30seyJ4Ijo0NDcsInkiOjI1MX0seyJ4Ijo0NzguNTA3ODEyNSwieSI6Mjg4fV0=" data-look="classic" marker-end="url(#my-svg_flowchart-v2-pointEnd)"/><path d="M296.268,62L274.64,70.167C253.012,78.333,209.756,94.667,194.783,110.497C179.81,126.327,193.12,141.653,199.775,149.317L206.43,156.98" id="my-svg-L_Z_J_0" class="edge-thickness-normal edge-pattern-solid edge-thickness-normal edge-pattern-solid flowchart-link" style=";" data-edge="true" data-et="edge" data-id="L_Z_J_0" data-points="W3sieCI6Mjk2LjI2ODQwMDQ5MzQyMTA0LCJ5Ijo2Mn0seyJ4IjoxNjYuNSwieSI6MTExfSx7IngiOjIwOS4wNTI2MzE1Nzg5NDczNywieSI6MTYwfV0=" data-look="classic" marker-end="url(#my-svg_flowchart-v2-pointEnd)"/><path d="M763.375,160L784.813,151.833C806.25,143.667,849.125,127.333,797.298,108.545C745.471,89.757,598.941,68.514,525.676,57.892L452.412,47.27" id="my-svg-L_A_Z_0" class="edge-thickness-normal edge-pattern-solid edge-thickness-normal edge-pattern-solid flowchart-link" style=";" data-edge="true" data-et="edge" data-id="L_A_Z_0" data-points="W3sieCI6NzYzLjM3NSwieSI6MTYwfSx7IngiOjg5MiwieSI6MTExfSx7IngiOjQ0OC40NTMxMjUsInkiOjQ2LjY5NjU3NjgwMjEzNDA5Nn1d" data-look="classic" marker-end="url(#my-svg_flowchart-v2-pointEnd)"/><path d="M679.844,214L676.953,220.167C674.063,226.333,668.281,238.667,668.982,250.439C669.682,262.211,676.864,273.421,680.455,279.027L684.045,284.632" id="my-svg-L_A_B_0" class="edge-thickness-normal edge-pattern-solid edge-thickness-normal edge-pattern-solid flowchart-link" style=";" data-edge="true" data-et="edge" data-id="L_A_B_0" data-points="W3sieCI6Njc5Ljg0Mzc1LCJ5IjoyMTR9LHsieCI6NjYyLjUsInkiOjI1MX0seyJ4Ijo2ODYuMjAzMTI1LCJ5IjoyODh9XQ==" data-look="classic" marker-end="url(#my-svg_flowchart-v2-pointEnd)"/><path d="M703.5,342L703.5,348.167C703.5,354.333,703.5,366.667,705.491,378.373C707.481,390.079,711.463,401.157,713.453,406.696L715.444,412.236" id="my-svg-L_B_C_0" class="edge-thickness-normal edge-pattern-solid edge-thickness-normal edge-pattern-solid flowchart-link" style=";" data-edge="true" data-et="edge" data-id="L_B_C_0" data-points="W3sieCI6NzAzLjUsInkiOjM0Mn0seyJ4Ijo3MDMuNSwieSI6Mzc5fSx7IngiOjcxNi43OTY4NzUsInkiOjQxNn1d" data-look="classic" marker-end="url(#my-svg_flowchart-v2-pointEnd)"/><path d="M746.109,288L755.841,281.833C765.573,275.667,785.036,263.333,784.555,251.331C784.074,239.328,763.649,227.656,753.436,221.82L743.223,215.985" id="my-svg-L_B_A_0" class="edge-thickness-normal edge-pattern-solid edge-thickness-normal edge-pattern-solid flowchart-link" style=";" data-edge="true" data-et="edge" data-id="L_B_A_0" data-points="W3sieCI6NzQ2LjEwOTM3NSwieSI6Mjg4fSx7IngiOjgwNC41LCJ5IjoyNTF9LHsieCI6NzM5Ljc1LCJ5IjoyMTR9XQ==" data-look="classic" marker-end="url(#my-svg_flowchart-v2-pointEnd)"/><path d="M770.5,202.797L810.167,210.831C849.833,218.865,929.167,234.932,968.833,253.633C1008.5,272.333,1008.5,293.667,1008.5,315C1008.5,336.333,1008.5,357.667,1008.5,379C1008.5,400.333,1008.5,421.667,1008.5,443C1008.5,464.333,1008.5,485.667,1008.5,509C1008.5,532.333,1008.5,557.667,1008.5,583C1008.5,608.333,1008.5,633.667,1026.955,652.877C1045.41,672.087,1082.32,685.174,1100.775,691.718L1119.23,698.262" id="my-svg-L_A_D_0" class="edge-thickness-normal edge-pattern-solid edge-thickness-normal edge-pattern-solid flowchart-link" style=";" data-edge="true" data-et="edge" data-id="L_A_D_0" data-points="W3sieCI6NzcwLjUsInkiOjIwMi43OTc0NjgzNTQ0MzAzOH0seyJ4IjoxMDA4LjUsInkiOjI1MX0seyJ4IjoxMDA4LjUsInkiOjMxNX0seyJ4IjoxMDA4LjUsInkiOjM3OX0seyJ4IjoxMDA4LjUsInkiOjQ0M30seyJ4IjoxMDA4LjUsInkiOjUwN30seyJ4IjoxMDA4LjUsInkiOjU4M30seyJ4IjoxMDA4LjUsInkiOjY1OX0seyJ4IjoxMTIzLCJ5Ijo2OTkuNTk4MzM3OTUwMTM4Nn1d" data-look="classic" marker-end="url(#my-svg_flowchart-v2-pointEnd)"/><path d="M614.5,196.618L541,205.682C467.5,214.746,320.5,232.873,252.813,247.636C185.127,262.4,196.753,273.8,202.567,279.5L208.38,285.2" id="my-svg-L_A_E_0" class="edge-thickness-normal edge-pattern-solid edge-thickness-normal edge-pattern-solid flowchart-link" style=";" data-edge="true" data-et="edge" data-id="L_A_E_0" data-points="W3sieCI6NjE0LjUsInkiOjE5Ni42MTg0OTcxMDk4MjY2fSx7IngiOjE3My41LCJ5IjoyNTF9LHsieCI6MjExLjIzNjIwNjA1NDY4NzUsInkiOjI4OH1d" data-look="classic" marker-end="url(#my-svg_flowchart-v2-pointEnd)"/><path d="M614.5,211.774L593.917,218.312C573.333,224.849,532.167,237.925,512.487,249.971C492.808,262.018,494.615,273.035,495.519,278.544L496.423,284.053" id="my-svg-L_A_F_0" class="edge-thickness-normal edge-pattern-solid edge-thickness-normal edge-pattern-solid flowchart-link" style=";" data-edge="true" data-et="edge" data-id="L_A_F_0" data-points="W3sieCI6NjE0LjUsInkiOjIxMS43NzQxOTM1NDgzODcxfSx7IngiOjQ5MSwieSI6MjUxfSx7IngiOjQ5Ny4wNzAzMTI1LCJ5IjoyODh9XQ==" data-look="classic" marker-end="url(#my-svg_flowchart-v2-pointEnd)"/><path d="M786.5,452.176L846.25,461.313C906,470.45,1025.5,488.725,1089.187,505.438C1152.874,522.15,1160.748,537.301,1164.685,544.876L1168.622,552.451" id="my-svg-L_C_G_0" class="edge-thickness-normal edge-pattern-solid edge-thickness-normal edge-pattern-solid flowchart-link" style=";" data-edge="true" data-et="edge" data-id="L_C_G_0" data-points="W3sieCI6Nzg2LjUsInkiOjQ1Mi4xNzU2MjcyNDAxNDMzNH0seyJ4IjoxMTQ1LCJ5Ijo1MDd9LHsieCI6MTE3MC40NjcxMDUyNjMxNTgsInkiOjU1Nn1d" data-look="classic" marker-end="url(#my-svg_flowchart-v2-pointEnd)"/><path d="M666.5,453.801L617.246,462.667C567.992,471.534,469.483,489.267,423.815,505.698C378.146,522.129,385.317,537.257,388.903,544.821L392.488,552.386" id="my-svg-L_C_H_0" class="edge-thickness-normal edge-pattern-solid edge-thickness-normal edge-pattern-solid flowchart-link" style=";" data-edge="true" data-et="edge" data-id="L_C_H_0" data-points="W3sieCI6NjY2LjUsInkiOjQ1My44MDA5MjgyMDQ3NTYzfSx7IngiOjM3MC45NzQ5OTk5OTk2Mjc0NywieSI6NTA3fSx7IngiOjM5NC4yMDE2NDQ3MzY3MDk3NCwieSI6NTU2fV0=" data-look="classic" marker-end="url(#my-svg_flowchart-v2-pointEnd)"/><path d="M786.5,418.925L803.083,412.271C819.667,405.617,852.833,392.308,869.417,374.987C886,357.667,886,336.333,886,315C886,293.667,886,272.333,867.383,255.509C848.766,238.685,811.532,226.37,792.915,220.212L774.298,214.055" id="my-svg-L_C_A_0" class="edge-thickness-normal edge-pattern-solid edge-thickness-normal edge-pattern-solid flowchart-link" style=";" data-edge="true" data-et="edge" data-id="L_C_A_0" data-points="W3sieCI6Nzg2LjUsInkiOjQxOC45MjQ3NjQ4OTAyODIxfSx7IngiOjg4NiwieSI6Mzc5fSx7IngiOjg4NiwieSI6MzE1fSx7IngiOjg4NiwieSI6MjUxfSx7IngiOjc3MC41LCJ5IjoyMTIuNzk4NDQ5NjEyNDAzMX1d" data-look="classic" marker-end="url(#my-svg_flowchart-v2-pointEnd)"/><path d="M666.5,462.743L644.083,470.119C621.667,477.495,576.833,492.248,558.913,507.217C540.992,522.186,549.983,537.372,554.479,544.965L558.975,552.558" id="my-svg-L_C_I_0" class="edge-thickness-normal edge-pattern-solid edge-thickness-normal edge-pattern-solid flowchart-link" style=";" data-edge="true" data-et="edge" data-id="L_C_I_0" data-points="W3sieCI6NjY2LjUsInkiOjQ2Mi43NDI5MzA1OTEyNTk2Nn0seyJ4Ijo1MzIsInkiOjUwN30seyJ4Ijo1NjEuMDEzMTU3ODk0NzM2OSwieSI6NTU2fV0=" data-look="classic" marker-end="url(#my-svg_flowchart-v2-pointEnd)"/><path d="M733.883,470L735.569,476.167C737.255,482.333,740.628,494.667,746.615,506.47C752.603,518.273,761.207,529.547,765.508,535.183L769.81,540.82" id="my-svg-L_C_K_0" class="edge-thickness-normal edge-pattern-solid edge-thickness-normal edge-pattern-solid flowchart-link" style=";" data-edge="true" data-et="edge" data-id="L_C_K_0" data-points="W3sieCI6NzMzLjg4MjgxMjUsInkiOjQ3MH0seyJ4Ijo3NDQsInkiOjUwN30seyJ4Ijo3NzIuMjM2ODQyMTA1MjYzMSwieSI6NTQ0fV0=" data-look="classic" marker-end="url(#my-svg_flowchart-v2-pointEnd)"/><path d="M1139.852,696L1128.626,689.833C1117.401,683.667,1094.951,671.333,1083.725,652.5C1072.5,633.667,1072.5,608.333,1072.5,583C1072.5,557.667,1072.5,532.333,1072.5,509C1072.5,485.667,1072.5,464.333,1072.5,443C1072.5,421.667,1072.5,400.333,1072.5,379C1072.5,357.667,1072.5,336.333,1072.5,315C1072.5,293.667,1072.5,272.333,1072.5,251C1072.5,229.667,1072.5,208.333,1072.5,185C1072.5,161.667,1072.5,136.333,969.155,112.522C865.81,88.71,659.12,66.42,555.775,55.275L452.43,44.13" id="my-svg-L_D_Z_0" class="edge-thickness-normal edge-pattern-solid edge-thickness-normal edge-pattern-solid flowchart-link" style=";" data-edge="true" data-et="edge" data-id="L_D_Z_0" data-points="W3sieCI6MTEzOS44NTE1NjI1LCJ5Ijo2OTZ9LHsieCI6MTA3Mi41LCJ5Ijo2NTl9LHsieCI6MTA3Mi41LCJ5Ijo1ODN9LHsieCI6MTA3Mi41LCJ5Ijo1MDd9LHsieCI6MTA3Mi41LCJ5Ijo0NDN9LHsieCI6MTA3Mi41LCJ5IjozNzl9LHsieCI6MTA3Mi41LCJ5IjozMTV9LHsieCI6MTA3Mi41LCJ5IjoyNTF9LHsieCI6MTA3Mi41LCJ5IjoxODd9LHsieCI6MTA3Mi41LCJ5IjoxMTF9LHsieCI6NDQ4LjQ1MzEyNSwieSI6NDMuNzAwNzU5MzgxNDA5MDE0fV0=" data-look="classic" marker-end="url(#my-svg_flowchart-v2-pointEnd)"/><path d="M1224.648,696L1232.79,689.833C1240.932,683.667,1257.216,671.333,1265.358,652.5C1273.5,633.667,1273.5,608.333,1273.5,583C1273.5,557.667,1273.5,532.333,1273.5,509C1273.5,485.667,1273.5,464.333,1273.5,443C1273.5,421.667,1273.5,400.333,1273.5,379C1273.5,357.667,1273.5,336.333,1273.5,315C1273.5,293.667,1273.5,272.333,1190.329,252.505C1107.159,232.677,940.817,214.353,857.647,205.192L774.476,196.03" id="my-svg-L_D_A_0" class="edge-thickness-normal edge-pattern-solid edge-thickness-normal edge-pattern-solid flowchart-link" style=";" data-edge="true" data-et="edge" data-id="L_D_A_0" data-points="W3sieCI6MTIyNC42NDg0Mzc1LCJ5Ijo2OTZ9LHsieCI6MTI3My41LCJ5Ijo2NTl9LHsieCI6MTI3My41LCJ5Ijo1ODN9LHsieCI6MTI3My41LCJ5Ijo1MDd9LHsieCI6MTI3My41LCJ5Ijo0NDN9LHsieCI6MTI3My41LCJ5IjozNzl9LHsieCI6MTI3My41LCJ5IjozMTV9LHsieCI6MTI3My41LCJ5IjoyNTF9LHsieCI6NzcwLjUsInkiOjE5NS41OTIwODI2MTYxNzl9XQ==" data-look="classic" marker-end="url(#my-svg_flowchart-v2-pointEnd)"/><path d="M1243.211,696L1255.592,689.833C1267.974,683.667,1292.737,671.333,1291.406,657.331C1290.074,643.328,1262.649,627.656,1248.936,619.82L1235.223,611.985" id="my-svg-L_D_G_0" class="edge-thickness-normal edge-pattern-solid edge-thickness-normal edge-pattern-solid flowchart-link" style=";" data-edge="true" data-et="edge" data-id="L_D_G_0" data-points="W3sieCI6MTI0My4yMTA5Mzc1LCJ5Ijo2OTZ9LHsieCI6MTMxNy41LCJ5Ijo2NTl9LHsieCI6MTIzMS43NSwieSI6NjEwfV0=" data-look="classic" marker-end="url(#my-svg_flowchart-v2-pointEnd)"/><path d="M299.619,288L313.516,281.833C327.413,275.667,355.206,263.333,369.103,246.5C383,229.667,383,208.333,383,185C383,161.667,383,136.333,381.495,116.154C379.99,95.974,376.979,80.948,375.474,73.435L373.969,65.922" id="my-svg-L_E_Z_0" class="edge-thickness-normal edge-pattern-solid edge-thickness-normal edge-pattern-solid flowchart-link" style=";" data-edge="true" data-et="edge" data-id="L_E_Z_0" data-points="W3sieCI6Mjk5LjYxOTAxODU1NDY4NzUsInkiOjI4OH0seyJ4IjozODMsInkiOjI1MX0seyJ4IjozODMsInkiOjE4N30seyJ4IjozODMsInkiOjExMX0seyJ4IjozNzMuMTgyODc0MTc3NjMxNTYsInkiOjYyfV0=" data-look="classic" marker-end="url(#my-svg_flowchart-v2-pointEnd)"/><path d="M304.773,291.031L323.145,284.359C341.516,277.687,378.258,264.344,429.229,250.153C480.201,235.963,545.402,220.925,578.002,213.407L610.602,205.888" id="my-svg-L_E_A_0" class="edge-thickness-normal edge-pattern-solid edge-thickness-normal edge-pattern-solid flowchart-link" style=";" data-edge="true" data-et="edge" data-id="L_E_A_0" data-points="W3sieCI6MzA0Ljc3MzQzNzUsInkiOjI5MS4wMzA4NTUxNjY5MTA1fSx7IngiOjQxNSwieSI6MjUxfSx7IngiOjYxNC41LCJ5IjoyMDQuOTg5MTg5MTg5MTg5MTh9XQ==" data-look="classic" marker-end="url(#my-svg_flowchart-v2-pointEnd)"/><path d="M521.961,288L526.634,281.833C531.307,275.667,540.654,263.333,545.327,246.5C550,229.667,550,208.333,550,185C550,161.667,550,136.333,531.034,115.757C512.068,95.18,474.136,79.36,455.17,71.45L436.204,63.54" id="my-svg-L_F_Z_0" class="edge-thickness-normal edge-pattern-solid edge-thickness-normal edge-pattern-solid flowchart-link" style=";" data-edge="true" data-et="edge" data-id="L_F_Z_0" data-points="W3sieCI6NTIxLjk2MDkzNzUsInkiOjI4OH0seyJ4Ijo1NTAsInkiOjI1MX0seyJ4Ijo1NTAsInkiOjE4N30seyJ4Ijo1NTAsInkiOjExMX0seyJ4Ijo0MzIuNTExODIxNTQ2MDUyNiwieSI6NjJ9XQ==" data-look="classic" marker-end="url(#my-svg_flowchart-v2-pointEnd)"/><path d="M540.734,288L549.695,281.833C558.656,275.667,576.578,263.333,594.424,251.365C612.269,239.396,630.038,227.791,638.923,221.989L647.807,216.187" id="my-svg-L_F_A_0" class="edge-thickness-normal edge-pattern-solid edge-thickness-normal edge-pattern-solid flowchart-link" style=";" data-edge="true" data-et="edge" data-id="L_F_A_0" data-points="W3sieCI6NTQwLjczNDM3NSwieSI6Mjg4fSx7IngiOjU5NC41LCJ5IjoyNTF9LHsieCI6NjUxLjE1NjI1LCJ5IjoyMTR9XQ==" data-look="classic" marker-end="url(#my-svg_flowchart-v2-pointEnd)"/><path d="M1194.625,556L1197.688,547.833C1200.75,539.667,1206.875,523.333,1139.515,505.902C1072.155,488.472,931.311,469.943,860.888,460.679L790.466,451.415" id="my-svg-L_G_C_0" class="edge-thickness-normal edge-pattern-solid edge-thickness-normal edge-pattern-solid flowchart-link" style=";" data-edge="true" data-et="edge" data-id="L_G_C_0" data-points="W3sieCI6MTE5NC42MjUsInkiOjU1Nn0seyJ4IjoxMjEzLCJ5Ijo1MDd9LHsieCI6Nzg2LjUsInkiOjQ1MC44OTMxMTQwODAxNjQ0fV0=" data-look="classic" marker-end="url(#my-svg_flowchart-v2-pointEnd)"/><path d="M1133.342,610L1117.868,618.167C1102.395,626.333,1071.447,642.667,1069.67,656.736C1067.893,670.806,1095.285,682.611,1108.982,688.514L1122.678,694.417" id="my-svg-L_G_D_0" class="edge-thickness-normal edge-pattern-solid edge-thickness-normal edge-pattern-solid flowchart-link" style=";" data-edge="true" data-et="edge" data-id="L_G_D_0" data-points="W3sieCI6MTEzMy4zNDIxMDUyNjMxNTgsInkiOjYxMH0seyJ4IjoxMDQwLjUsInkiOjY1OX0seyJ4IjoxMTI2LjM1MTU2MjUsInkiOjY5Nn1d" data-look="classic" marker-end="url(#my-svg_flowchart-v2-pointEnd)"/><path d="M422.987,556L427.822,547.833C432.658,539.667,442.329,523.333,482.265,506.983C522.201,490.632,592.403,474.265,627.504,466.081L662.604,457.897" id="my-svg-L_H_C_0" class="edge-thickness-normal edge-pattern-solid edge-thickness-normal edge-pattern-solid flowchart-link" style=";" data-edge="true" data-et="edge" data-id="L_H_C_0" data-points="W3sieCI6NDIyLjk4Njg0MjEwNTI2MzIsInkiOjU1Nn0seyJ4Ijo0NTIsInkiOjUwN30seyJ4Ijo2NjYuNSwieSI6NDU2Ljk4OTA3MTAzODI1MTR9XQ==" data-look="classic" marker-end="url(#my-svg_flowchart-v2-pointEnd)"/><path d="M595.118,556L600.599,547.833C606.079,539.667,617.039,523.333,631.452,509.363C645.864,495.393,663.727,483.786,672.659,477.983L681.591,472.179" id="my-svg-L_I_C_0" class="edge-thickness-normal edge-pattern-solid edge-thickness-normal edge-pattern-solid flowchart-link" style=";" data-edge="true" data-et="edge" data-id="L_I_C_0" data-points="W3sieCI6NTk1LjExODQyMTA1MjYzMTYsInkiOjU1Nn0seyJ4Ijo2MjgsInkiOjUwN30seyJ4Ijo2ODQuOTQ1MzEyNSwieSI6NDcwfV0=" data-look="classic" marker-end="url(#my-svg_flowchart-v2-pointEnd)"/><path d="M831.763,544L836.469,537.833C841.175,531.667,850.588,519.333,843.032,507.288C835.476,495.243,810.951,483.486,798.689,477.608L786.427,471.729" id="my-svg-L_K_C_0" class="edge-thickness-normal edge-pattern-solid edge-thickness-normal edge-pattern-solid flowchart-link" style=";" data-edge="true" data-et="edge" data-id="L_K_C_0" data-points="W3sieCI6ODMxLjc2MzE1Nzg5NDczNjksInkiOjU0NH0seyJ4Ijo4NjAsInkiOjUwN30seyJ4Ijo3ODIuODIwMzEyNSwieSI6NDcwfV0=" data-look="classic" marker-end="url(#my-svg_flowchart-v2-pointEnd)"/><path d="M255.947,160L263.039,151.833C270.132,143.667,284.316,127.333,298.403,111.493C312.49,95.652,326.479,80.304,333.474,72.63L340.469,64.956" id="my-svg-L_J_Z_0" class="edge-thickness-normal edge-pattern-solid edge-thickness-normal edge-pattern-solid flowchart-link" style=";" data-edge="true" data-et="edge" data-id="L_J_Z_0" data-points="W3sieCI6MjU1Ljk0NzM2ODQyMTA1MjYzLCJ5IjoxNjB9LHsieCI6Mjk4LjUsInkiOjExMX0seyJ4IjozNDMuMTYzMTM3MzM1NTI2MywieSI6NjJ9XQ==" data-look="classic" marker-end="url(#my-svg_flowchart-v2-pointEnd)"/><path d="M715.447,470L713.789,474.05C712.132,478.1,708.816,486.2,714.158,490.25C719.5,494.3,733.5,494.3,739.095,490.867C744.689,487.434,741.879,480.568,740.473,477.135L739.068,473.702" id="my-svg-L_C_C_0" class="edge-thickness-normal edge-pattern-solid edge-thickness-normal edge-pattern-solid flowchart-link" style=";" data-edge="true" data-et="edge" data-id="L_C_C_0" data-points="W3sieCI6NzE1LjQ0NzM2ODQyMTA1MjYsInkiOjQ3MH0seyJ4Ijo3MDUuNSwieSI6NDk0LjN9LHsieCI6NzQ3LjUsInkiOjQ5NC4zfSx7IngiOjczNy41NTI2MzE1Nzg5NDc0LCJ5Ijo0NzB9XQ==" data-look="classic" marker-end="url(#my-svg_flowchart-v2-pointEnd)"/></g><g class="edgeLabels"><g class="edgeLabel" transform="translate(582.2143, 89.71902)"><g class="label" data-id="L_Z_A_0" transform="translate(-86.2265625, -12)"><foreignObject width="172.453125" height="24"><div xmlns="http://www.w3.org/1999/xhtml" class="labelBkg" style="display: table-cell; white-space: nowrap; line-height: 1.5; max-width: 200px; text-align: center;"><span class="edgeLabel"><p>こども向け/エンジニア向け選択</p></span></div></foreignObject></g></g><g class="edgeLabel" transform="translate(964.5, 379)"><g class="label" data-id="L_Z_D_0" transform="translate(-24, -12)"><foreignObject width="48" height="24"><div xmlns="http://www.w3.org/1999/xhtml" class="labelBkg" style="display: table-cell; white-space: nowrap; line-height: 1.5; max-width: 200px; text-align: center;"><span class="edgeLabel"><p>全札一覧</p></span></div></foreignObject></g></g><g class="edgeLabel" transform="translate(32, 187)"><g class="label" data-id="L_Z_E_0" transform="translate(-24, -12)"><foreignObject width="48" height="24"><div xmlns="http://www.w3.org/1999/xhtml" class="labelBkg" style="display: table-cell; white-space: nowrap; line-height: 1.5; max-width: 200px; text-align: center;"><span class="edgeLabel"><p>指摘一覧</p></span></div></foreignObject></g></g><g class="edgeLabel" transform="translate(447, 187)"><g class="label" data-id="L_Z_F_0" transform="translate(-24, -12)"><foreignObject width="48" height="24"><div xmlns="http://www.w3.org/1999/xhtml" class="labelBkg" style="display: table-cell; white-space: nowrap; line-height: 1.5; max-width: 200px; text-align: center;"><span class="edgeLabel"><p>更新履歴</p></span></div></foreignObject></g></g><g class="edgeLabel" transform="translate(201.02733, 97.96263)"><g class="label" data-id="L_Z_J_0" transform="translate(-100, -24)"><foreignObject width="200" height="48"><div xmlns="http://www.w3.org/1999/xhtml" class="labelBkg" style="display: table; white-space: break-spaces; line-height: 1.5; max-width: 200px; text-align: center; width: 200px;"><span class="edgeLabel"><p>クイズ大会に参加する/開設中ルーム一覧</p></span></div></foreignObject></g></g><g class="edgeLabel" transform="translate(738.33566, 88.72244)"><g class="label" data-id="L_A_Z_0" transform="translate(-12, -12)"><foreignObject width="24" height="24"><div xmlns="http://www.w3.org/1999/xhtml" class="labelBkg" style="display: table-cell; white-space: nowrap; line-height: 1.5; max-width: 200px; text-align: center;"><span class="edgeLabel"><p>戻る</p></span></div></foreignObject></g></g><g class="edgeLabel" transform="translate(663.33019, 252.29591)"><g class="label" data-id="L_A_B_0" transform="translate(-36, -12)"><foreignObject width="72" height="24"><div xmlns="http://www.w3.org/1999/xhtml" class="labelBkg" style="display: table-cell; white-space: nowrap; line-height: 1.5; max-width: 200px; text-align: center;"><span class="edgeLabel"><p>カテゴリ選択</p></span></div></foreignObject></g></g><g class="edgeLabel" transform="translate(703.5, 379)"><g class="label" data-id="L_B_C_0" transform="translate(-12, -12)"><foreignObject width="24" height="24"><div xmlns="http://www.w3.org/1999/xhtml" class="labelBkg" style="display: table-cell; white-space: nowrap; line-height: 1.5; max-width: 200px; text-align: center;"><span class="edgeLabel"><p>はい</p></span></div></foreignObject></g></g><g class="edgeLabel" transform="translate(804.5, 251)"><g class="label" data-id="L_B_A_0" transform="translate(-18, -12)"><foreignObject width="36" height="24"><div xmlns="http://www.w3.org/1999/xhtml" class="labelBkg" style="display: table-cell; white-space: nowrap; line-height: 1.5; max-width: 200px; text-align: center;"><span class="edgeLabel"><p>いいえ</p></span></div></foreignObject></g></g><g class="edgeLabel" transform="translate(1008.5, 443)"><g class="label" data-id="L_A_D_0" transform="translate(-24, -12)"><foreignObject width="48" height="24"><div xmlns="http://www.w3.org/1999/xhtml" class="labelBkg" style="display: table-cell; white-space: nowrap; line-height: 1.5; max-width: 200px; text-align: center;"><span class="edgeLabel"><p>全札一覧</p></span></div></foreignObject></g></g><g class="edgeLabel" transform="translate(367.77413, 227.04327)"><g class="label" data-id="L_A_E_0" transform="translate(-24, -12)"><foreignObject width="48" height="24"><div xmlns="http://www.w3.org/1999/xhtml" class="labelBkg" style="display: table-cell; white-space: nowrap; line-height: 1.5; max-width: 200px; text-align: center;"><span class="edgeLabel"><p>指摘一覧</p></span></div></foreignObject></g></g><g class="edgeLabel" transform="translate(534.88228, 237.0622)"><g class="label" data-id="L_A_F_0" transform="translate(-24, -12)"><foreignObject width="48" height="24"><div xmlns="http://www.w3.org/1999/xhtml" class="labelBkg" style="display: table-cell; white-space: nowrap; line-height: 1.5; max-width: 200px; text-align: center;"><span class="edgeLabel"><p>更新履歴</p></span></div></foreignObject></g></g><g class="edgeLabel" transform="translate(726.5, 510.3)"><g class="label" data-id="L_C_C_0" transform="translate(-18, -12)"><foreignObject width="36" height="24"><div xmlns="http://www.w3.org/1999/xhtml" class="labelBkg" style="display: table-cell; white-space: nowrap; line-height: 1.5; max-width: 200px; text-align: center;"><span class="edgeLabel"><p>次の札</p></span></div></foreignObject></g></g><g class="edgeLabel" transform="translate(993.04416, 483.76183)"><g class="label" data-id="L_C_G_0" transform="translate(-36, -12)"><foreignObject width="72" height="24"><div xmlns="http://www.w3.org/1999/xhtml" class="labelBkg" style="display: table-cell; white-space: nowrap; line-height: 1.5; max-width: 200px; text-align: center;"><span class="edgeLabel"><p>履歴クリック</p></span></div></foreignObject></g></g><g class="edgeLabel" transform="translate(492.05333, 485.20403)"><g class="label" data-id="L_C_H_0" transform="translate(-12, -12)"><foreignObject width="24" height="24"><div xmlns="http://www.w3.org/1999/xhtml" class="labelBkg" style="display: table-cell; white-space: nowrap; line-height: 1.5; max-width: 200px; text-align: center;"><span class="edgeLabel"><p>読了</p></span></div></foreignObject></g></g><g class="edgeLabel" transform="translate(886, 315)"><g class="label" data-id="L_C_A_0" transform="translate(-24, -12)"><foreignObject width="48" height="24"><div xmlns="http://www.w3.org/1999/xhtml" class="labelBkg" style="display: table-cell; white-space: nowrap; line-height: 1.5; max-width: 200px; text-align: center;"><span class="edgeLabel"><p>リセット</p></span></div></foreignObject></g></g><g class="edgeLabel" transform="translate(532, 507)"><g class="label" data-id="L_C_I_0" transform="translate(-42, -12)"><foreignObject width="84" height="24"><div xmlns="http://www.w3.org/1999/xhtml" class="labelBkg" style="display: table-cell; white-space: nowrap; line-height: 1.5; max-width: 200px; text-align: center;"><span class="edgeLabel"><p>絵札を印刷する</p></span></div></foreignObject></g></g><g class="edgeLabel" transform="translate(746.48295, 510.25352)"><g class="label" data-id="L_C_K_0" transform="translate(-84, -12)"><foreignObject width="168" height="24"><div xmlns="http://www.w3.org/1999/xhtml" class="labelBkg" style="display: table-cell; white-space: nowrap; line-height: 1.5; max-width: 200px; text-align: center;"><span class="edgeLabel"><p>クイズ大会のルームを作成する</p></span></div></foreignObject></g></g><g class="edgeLabel" transform="translate(1072.5, 379)"><g class="label" data-id="L_D_Z_0" transform="translate(-12, -12)"><foreignObject width="24" height="24"><div xmlns="http://www.w3.org/1999/xhtml" class="labelBkg" style="display: table-cell; white-space: nowrap; line-height: 1.5; max-width: 200px; text-align: center;"><span class="edgeLabel"><p>戻る</p></span></div></foreignObject></g></g><g class="edgeLabel" transform="translate(1273.5, 443)"><g class="label" data-id="L_D_A_0" transform="translate(-12, -12)"><foreignObject width="24" height="24"><div xmlns="http://www.w3.org/1999/xhtml" class="labelBkg" style="display: table-cell; white-space: nowrap; line-height: 1.5; max-width: 200px; text-align: center;"><span class="edgeLabel"><p>戻る</p></span></div></foreignObject></g></g><g class="edgeLabel" transform="translate(1310.65412, 655.08807)"><g class="label" data-id="L_D_G_0" transform="translate(-24, -12)"><foreignObject width="48" height="24"><div xmlns="http://www.w3.org/1999/xhtml" class="labelBkg" style="display: table-cell; white-space: nowrap; line-height: 1.5; max-width: 200px; text-align: center;"><span class="edgeLabel"><p>詳細表示</p></span></div></foreignObject></g></g><g class="edgeLabel" transform="translate(383, 187)"><g class="label" data-id="L_E_Z_0" transform="translate(-12, -12)"><foreignObject width="24" height="24"><div xmlns="http://www.w3.org/1999/xhtml" class="labelBkg" style="display: table-cell; white-space: nowrap; line-height: 1.5; max-width: 200px; text-align: center;"><span class="edgeLabel"><p>戻る</p></span></div></foreignObject></g></g><g class="edgeLabel" transform="translate(457.61461, 241.17177)"><g class="label" data-id="L_E_A_0" transform="translate(-12, -12)"><foreignObject width="24" height="24"><div xmlns="http://www.w3.org/1999/xhtml" class="labelBkg" style="display: table-cell; white-space: nowrap; line-height: 1.5; max-width: 200px; text-align: center;"><span class="edgeLabel"><p>戻る</p></span></div></foreignObject></g></g><g class="edgeLabel" transform="translate(550, 187)"><g class="label" data-id="L_F_Z_0" transform="translate(-12, -12)"><foreignObject width="24" height="24"><div xmlns="http://www.w3.org/1999/xhtml" class="labelBkg" style="display: table-cell; white-space: nowrap; line-height: 1.5; max-width: 200px; text-align: center;"><span class="edgeLabel"><p>戻る</p></span></div></foreignObject></g></g><g class="edgeLabel" transform="translate(594.5, 251)"><g class="label" data-id="L_F_A_0" transform="translate(-12, -12)"><foreignObject width="24" height="24"><div xmlns="http://www.w3.org/1999/xhtml" class="labelBkg" style="display: table-cell; white-space: nowrap; line-height: 1.5; max-width: 200px; text-align: center;"><span class="edgeLabel"><p>戻る</p></span></div></foreignObject></g></g><g class="edgeLabel" transform="translate(1025.6925, 482.35934)"><g class="label" data-id="L_G_C_0" transform="translate(-12, -12)"><foreignObject width="24" height="24"><div xmlns="http://www.w3.org/1999/xhtml" class="labelBkg" style="display: table-cell; white-space: nowrap; line-height: 1.5; max-width: 200px; text-align: center;"><span class="edgeLabel"><p>戻る</p></span></div></foreignObject></g></g><g class="edgeLabel" transform="translate(1045.58259, 656.31752)"><g class="label" data-id="L_G_D_0" transform="translate(-12, -12)"><foreignObject width="24" height="24"><div xmlns="http://www.w3.org/1999/xhtml" class="labelBkg" style="display: table-cell; white-space: nowrap; line-height: 1.5; max-width: 200px; text-align: center;"><span class="edgeLabel"><p>戻る</p></span></div></foreignObject></g></g><g class="edgeLabel" transform="translate(452, 507)"><g class="label" data-id="L_H_C_0" transform="translate(-18, -12)"><foreignObject width="36" height="24"><div xmlns="http://www.w3.org/1999/xhtml" class="labelBkg" style="display: table-cell; white-space: nowrap; line-height: 1.5; max-width: 200px; text-align: center;"><span class="edgeLabel"><p>再挑戦</p></span></div></foreignObject></g></g><g class="edgeLabel" transform="translate(631.73144, 504.57551)"><g class="label" data-id="L_I_C_0" transform="translate(-12, -12)"><foreignObject width="24" height="24"><div xmlns="http://www.w3.org/1999/xhtml" class="labelBkg" style="display: table-cell; white-space: nowrap; line-height: 1.5; max-width: 200px; text-align: center;"><span class="edgeLabel"><p>戻る</p></span></div></foreignObject></g></g><g class="edgeLabel" transform="translate(860, 507)"><g class="label" data-id="L_K_C_0" transform="translate(-12, -12)"><foreignObject width="24" height="24"><div xmlns="http://www.w3.org/1999/xhtml" class="labelBkg" style="display: table-cell; white-space: nowrap; line-height: 1.5; max-width: 200px; text-align: center;"><span class="edgeLabel"><p>戻る</p></span></div></foreignObject></g></g><g class="edgeLabel" transform="translate(298.5, 111)"><g class="label" data-id="L_J_Z_0" transform="translate(-12, -12)"><foreignObject width="24" height="24"><div xmlns="http://www.w3.org/1999/xhtml" class="labelBkg" style="display: table-cell; white-space: nowrap; line-height: 1.5; max-width: 200px; text-align: center;"><span class="edgeLabel"><p>戻る</p></span></div></foreignObject></g></g></g><g class="nodes"><g class="node default" id="my-svg-flowchart-Z-0" data-look="classic" transform="translate(367.7734375, 35)"><rect class="basic label-container" style="" x="-80.6796875" y="-27" width="161.359375" height="54"/><g class="label" style="" transform="translate(-50.6796875, -12)"><rect/><foreignObject width="101.359375" height="24"><div xmlns="http://www.w3.org/1999/xhtml" style="display: table-cell; white-space: nowrap; line-height: 1.5; max-width: 200px; text-align: center;"><span class="nodeLabel"><p>division選択画面</p></span></div></foreignObject></g></g><g class="node default" id="my-svg-flowchart-A-1" data-look="classic" transform="translate(692.5, 187)"><rect class="basic label-container" style="" x="-78" y="-27" width="156" height="54"/><g class="label" style="" transform="translate(-48, -12)"><rect/><foreignObject width="96" height="24"><div xmlns="http://www.w3.org/1999/xhtml" style="display: table-cell; white-space: nowrap; line-height: 1.5; max-width: 200px; text-align: center;"><span class="nodeLabel"><p>カテゴリ選択画面</p></span></div></foreignObject></g></g><g class="node default" id="my-svg-flowchart-D-3" data-look="classic" transform="translate(1189, 723)"><rect class="basic label-container" style="" x="-66" y="-27" width="132" height="54"/><g class="label" style="" transform="translate(-36, -12)"><rect/><foreignObject width="72" height="24"><div xmlns="http://www.w3.org/1999/xhtml" style="display: table-cell; white-space: nowrap; line-height: 1.5; max-width: 200px; text-align: center;"><span class="nodeLabel"><p>全札一覧画面</p></span></div></foreignObject></g></g><g class="node default" id="my-svg-flowchart-E-5" data-look="classic" transform="translate(238.7734375, 315)"><rect class="basic label-container" style="" x="-66" y="-27" width="132" height="54"/><g class="label" style="" transform="translate(-36, -12)"><rect/><foreignObject width="72" height="24"><div xmlns="http://www.w3.org/1999/xhtml" style="display: table-cell; white-space: nowrap; line-height: 1.5; max-width: 200px; text-align: center;"><span class="nodeLabel"><p>指摘一覧画面</p></span></div></foreignObject></g></g><g class="node default" id="my-svg-flowchart-F-7" data-look="classic" transform="translate(501.5, 315)"><rect class="basic label-container" style="" x="-66" y="-27" width="132" height="54"/><g class="label" style="" transform="translate(-36, -12)"><rect/><foreignObject width="72" height="24"><div xmlns="http://www.w3.org/1999/xhtml" style="display: table-cell; white-space: nowrap; line-height: 1.5; max-width: 200px; text-align: center;"><span class="nodeLabel"><p>更新履歴画面</p></span></div></foreignObject></g></g><g class="node default" id="my-svg-flowchart-J-9" data-look="classic" transform="translate(232.5, 187)"><rect class="basic label-container" style="" x="-90" y="-27" width="180" height="54"/><g class="label" style="" transform="translate(-60, -12)"><rect/><foreignObject width="120" height="24"><div xmlns="http://www.w3.org/1999/xhtml" style="display: table-cell; white-space: nowrap; line-height: 1.5; max-width: 200px; text-align: center;"><span class="nodeLabel"><p>クイズ大会参加者画面</p></span></div></foreignObject></g></g><g class="node default" id="my-svg-flowchart-B-13" data-look="classic" transform="translate(703.5, 315)"><rect class="basic label-container" style="" x="-66" y="-27" width="132" height="54"/><g class="label" style="" transform="translate(-36, -12)"><rect/><foreignObject width="72" height="24"><div xmlns="http://www.w3.org/1999/xhtml" style="display: table-cell; white-space: nowrap; line-height: 1.5; max-width: 200px; text-align: center;"><span class="nodeLabel"><p>確認モーダル</p></span></div></foreignObject></g></g><g class="node default" id="my-svg-flowchart-C-15" data-look="classic" transform="translate(726.5, 443)"><rect class="basic label-container" style="" x="-60" y="-27" width="120" height="54"/><g class="label" style="" transform="translate(-30, -12)"><rect/><foreignObject width="60" height="24"><div xmlns="http://www.w3.org/1999/xhtml" style="display: table-cell; white-space: nowrap; line-height: 1.5; max-width: 200px; text-align: center;"><span class="nodeLabel"><p>ゲーム画面</p></span></div></foreignObject></g></g><g class="node default" id="my-svg-flowchart-G-27" data-look="classic" transform="translate(1184.5, 583)"><rect class="basic label-container" style="" x="-54" y="-27" width="108" height="54"/><g class="label" style="" transform="translate(-24, -12)"><rect/><foreignObject width="48" height="24"><div xmlns="http://www.w3.org/1999/xhtml" style="display: table-cell; white-space: nowrap; line-height: 1.5; max-width: 200px; text-align: center;"><span class="nodeLabel"><p>詳細画面</p></span></div></foreignObject></g></g><g class="node default" id="my-svg-flowchart-H-29" data-look="classic" transform="translate(407, 583)"><rect class="basic label-container" style="" x="-54" y="-27" width="108" height="54"/><g class="label" style="" transform="translate(-24, -12)"><rect/><foreignObject width="48" height="24"><div xmlns="http://www.w3.org/1999/xhtml" style="display: table-cell; white-space: nowrap; line-height: 1.5; max-width: 200px; text-align: center;"><span class="nodeLabel"><p>完了画面</p></span></div></foreignObject></g></g><g class="node default" id="my-svg-flowchart-I-33" data-look="classic" transform="translate(577, 583)"><rect class="basic label-container" style="" x="-66" y="-27" width="132" height="54"/><g class="label" style="" transform="translate(-36, -12)"><rect/><foreignObject width="72" height="24"><div xmlns="http://www.w3.org/1999/xhtml" style="display: table-cell; white-space: nowrap; line-height: 1.5; max-width: 200px; text-align: center;"><span class="nodeLabel"><p>絵札印刷画面</p></span></div></foreignObject></g></g><g class="node default" id="my-svg-flowchart-K-35" data-look="classic" transform="translate(802, 583)"><rect class="basic label-container" style="" x="-102" y="-39" width="204" height="78"/><g class="label" style="" transform="translate(-72, -24)"><rect/><foreignObject width="144" height="48"><div xmlns="http://www.w3.org/1999/xhtml" style="display: table-cell; white-space: nowrap; line-height: 1.5; max-width: 200px; text-align: center;"><span class="nodeLabel"><p>クイズ大会ルーム情報画面<br />管理者</p></span></div></foreignObject></g></g><g class="label edgeLabel" id="C---C---1" transform="translate(302.94999999925494, 583)"><rect width="0.1" height="0.1"/><g class="label" style="" transform="translate(0, 0)"><rect/><foreignObject width="0" height="0"><div xmlns="http://www.w3.org/1999/xhtml" style="display: table-cell; white-space: nowrap; line-height: 1.5; max-width: 10px; text-align: center;"><span class="nodeLabel"></span></div></foreignObject></g></g><g class="label edgeLabel" id="C---C---2" transform="translate(800, 723)"><rect width="0.1" height="0.1"/><g class="label" style="" transform="translate(0, 0)"><rect/><foreignObject width="0" height="0"><div xmlns="http://www.w3.org/1999/xhtml" style="display: table-cell; white-space: nowrap; line-height: 1.5; max-width: 10px; text-align: center;"><span class="nodeLabel"></span></div></foreignObject></g></g></g></g></g><defs><filter id="my-svg-drop-shadow" height="130%" width="130%"><feDropShadow dx="4" dy="4" stdDeviation="0" flood-opacity="0.06" flood-color="#000000"/></filter></defs><defs><filter id="my-svg-drop-shadow-small" height="150%" width="150%"><feDropShadow dx="2" dy="2" stdDeviation="0" flood-opacity="0.06" flood-color="#000000"/></filter></defs></svg>